<svg width="39" height="67" viewBox="0 0 39 67" fill="none" xmlns="http://www.w3.org/2000/svg">
<rect x="0.388855" width="38" height="66" transform="rotate(0.337597 0.388855 0)" fill="#C4C4C4"/>
<rect x="0.388855" width="38" height="66" transform="rotate(0.337597 0.388855 0)" fill="url(#paint0_linear)"/>
<path d="M13.4735 32.7339L14.5679 24.0215L24.5403 24.0803L24.5222 27.1505L17.7606 27.1107L17.354 30.4951C17.6362 30.3326 18.0042 30.1903 18.4581 30.068C18.9197 29.9457 19.3693 29.8858 19.8068 29.8884C21.5021 29.8984 22.7999 30.4099 23.7002 31.4231C24.6083 32.4285 25.0571 33.8374 25.0464 35.6498C25.0399 36.7436 24.788 37.7343 24.2906 38.622C23.801 39.5019 23.1134 40.1776 22.2278 40.6489C21.3422 41.1203 20.2979 41.3524 19.0948 41.3453C18.0245 41.339 17.0219 41.1144 16.087 40.6714C15.1521 40.2205 14.4213 39.6107 13.8946 38.842C13.3679 38.0654 13.1113 37.1928 13.1248 36.2241L17.0857 36.2475C17.1211 36.8727 17.3174 37.37 17.6746 37.7393C18.0318 38.1086 18.5034 38.2949 19.0893 38.2984C20.4174 38.3062 21.0872 37.3258 21.0988 35.357C21.1096 33.5368 20.3024 32.6218 18.6775 32.6123C17.7556 32.6068 17.0664 32.8996 16.6097 33.4907L13.4735 32.7339Z" fill="#FFF7F7"/>
<defs>
<linearGradient id="paint0_linear" x1="13.3889" y1="33" x2="38.3889" y2="85" gradientUnits="userSpaceOnUse">
<stop stop-color="#EB5757"/>
<stop offset="1" stop-color="#EBECF7" stop-opacity="0"/>
</linearGradient>
</defs>
</svg>
