<svg width="39" height="67" viewBox="0 0 39 67" fill="none" xmlns="http://www.w3.org/2000/svg">
<rect x="1" width="38" height="66" transform="rotate(0.337597 1 0)" fill="#C4C4C4"/>
<rect x="1" width="38" height="66" transform="rotate(0.337597 1 0)" fill="url(#paint0_linear)"/>
<path d="M25.4946 28.6403C25.4897 29.4684 25.2784 30.1976 24.8606 30.828C24.4506 31.4584 23.8852 31.9629 23.1642 32.3415C23.9743 32.7447 24.6156 33.2953 25.0881 33.9935C25.5606 34.6837 25.794 35.5015 25.7885 36.4468C25.7795 37.9702 25.2451 39.1702 24.1852 40.0468C23.1331 40.9235 21.6852 41.3563 19.8415 41.3455C17.99 41.3346 16.5317 40.8846 15.4666 39.9955C14.4015 39.0985 13.8735 37.8923 13.8824 36.3767C13.8878 35.4626 14.1269 34.6554 14.5998 33.9551C15.0727 33.2547 15.74 32.704 16.6018 32.3028C15.8775 31.9157 15.3102 31.4045 14.8999 30.7693C14.4895 30.1341 14.2868 29.4024 14.2917 28.5743C14.3004 27.0899 14.8112 25.921 15.8241 25.0676C16.8369 24.2142 18.1988 23.7925 19.9097 23.8026C21.6363 23.8128 23.0009 24.2505 24.0036 25.1158C25.0064 25.9811 25.5034 27.1559 25.4946 28.6403ZM21.8295 36.1071C21.8336 35.404 21.6532 34.8639 21.2882 34.4867C20.9311 34.1018 20.4557 33.9076 19.8619 33.9041C19.2682 33.9006 18.7866 34.0891 18.4172 34.4698C18.0478 34.8426 17.861 35.3806 17.8569 36.0837C17.8529 36.7634 18.0333 37.3035 18.3981 37.7041C18.7708 38.0969 19.2579 38.2951 19.8595 38.2987C20.4454 38.3021 20.9192 38.1096 21.2809 37.7211C21.6425 37.3326 21.8254 36.7946 21.8295 36.1071ZM19.8918 26.8494C19.3605 26.8463 18.9533 27.0197 18.6699 27.3696C18.3945 27.7117 18.2549 28.1914 18.2513 28.8085C18.2477 29.4179 18.3854 29.9109 18.6645 30.2876C18.9435 30.6642 19.3565 30.8542 19.9033 30.8574C20.4424 30.8606 20.8458 30.6754 21.1137 30.302C21.3893 29.9286 21.5289 29.4372 21.5325 28.8279C21.5361 28.2185 21.3983 27.7372 21.1191 27.384C20.8478 27.0308 20.4387 26.8527 19.8918 26.8494Z" fill="#FFF7F7"/>
<defs>
<linearGradient id="paint0_linear" x1="14" y1="33" x2="39" y2="85" gradientUnits="userSpaceOnUse">
<stop stop-color="#EB5757"/>
<stop offset="1" stop-color="#EBECF7" stop-opacity="0"/>
</linearGradient>
</defs>
</svg>
