<svg width="39" height="67" viewBox="0 0 39 67" fill="none" xmlns="http://www.w3.org/2000/svg">
<rect x="0.388885" width="38" height="66" transform="rotate(0.337597 0.388885 0)" fill="#C4C4C4"/>
<rect x="0.388885" width="38" height="66" transform="rotate(0.337597 0.388885 0)" fill="url(#paint0_linear)"/>
<path d="M22.8309 23.8241L22.8126 26.9295L22.6369 26.9285C21.1603 26.9198 19.9434 27.2681 18.9861 27.9734C18.0367 28.6709 17.4489 29.6479 17.2227 30.9044C18.1185 30.0347 19.246 29.6038 20.6054 29.6118C22.0819 29.6205 23.2545 30.1665 24.1231 31.2498C24.9918 32.3331 25.4209 33.7497 25.4106 35.4996C25.4042 36.5856 25.1406 37.5801 24.6196 38.4833C24.1065 39.3866 23.3874 40.0933 22.4625 40.6035C21.5455 41.1059 20.5284 41.3538 19.4112 41.3472C18.2003 41.3401 17.1199 41.0603 16.17 40.5078C15.2202 39.9475 14.4827 39.1541 13.9574 38.1275C13.4322 37.101 13.1658 35.9197 13.158 34.5837L13.1673 33.0017C13.1777 31.2439 13.562 29.668 14.3202 28.274C15.0863 26.8723 16.1709 25.7771 17.574 24.9884C18.9771 24.1998 20.5302 23.8105 22.2333 23.8206L22.8309 23.8241ZM19.2165 32.6272C18.6931 32.6241 18.2549 32.7426 17.9019 32.9827C17.5489 33.2228 17.2854 33.5181 17.1115 33.8687L17.1045 35.0523C17.0918 37.2085 17.8315 38.291 19.3237 38.2998C19.9253 38.3033 20.4268 38.0367 20.8284 37.5C21.2379 36.9634 21.445 36.2888 21.4498 35.4763C21.4547 34.6404 21.2517 33.9595 20.8407 33.4336C20.4376 32.9 19.8962 32.6312 19.2165 32.6272Z" fill="#FFF7F7"/>
<defs>
<linearGradient id="paint0_linear" x1="13.3889" y1="33" x2="38.3889" y2="85" gradientUnits="userSpaceOnUse">
<stop stop-color="#2F80ED"/>
<stop offset="1" stop-color="#EBECF7" stop-opacity="0"/>
</linearGradient>
</defs>
</svg>
