<svg width="39" height="67" viewBox="0 0 39 67" fill="none" xmlns="http://www.w3.org/2000/svg">
<rect x="0.388855" width="38" height="66" transform="rotate(0.337597 0.388855 0)" fill="#C4C4C4"/>
<rect x="0.388855" width="38" height="66" transform="rotate(0.337597 0.388855 0)" fill="url(#paint0_linear)"/>
<path d="M21.01 34.5245C20.1539 35.2851 19.1986 35.6623 18.1439 35.656C16.597 35.6469 15.3736 35.1163 14.4735 34.0641C13.5735 33.0119 13.1286 31.6108 13.1389 29.8608C13.1453 28.7671 13.4052 27.753 13.9185 26.8185C14.4319 25.884 15.1472 25.146 16.0644 24.6045C16.9895 24.0631 18.0067 23.7957 19.1161 23.8022C20.2411 23.8088 21.255 24.1 22.1579 24.6756C23.0686 25.2435 23.7748 26.0484 24.2765 27.0905C24.7782 28.1247 25.0329 29.3176 25.0406 30.6692L25.0317 32.1809C25.0206 34.0637 24.6399 35.6943 23.8896 37.0727C23.147 38.4512 22.09 39.5075 20.7185 40.2416C19.3469 40.9757 17.751 41.3374 15.9308 41.3267L15.6847 41.3252L15.7033 38.1612L16.4534 38.1539C19.1728 38.0371 20.6917 36.8273 21.01 34.5245ZM19.2271 32.8147C20.0864 32.8198 20.7058 32.4523 21.0851 31.7124L21.0948 30.0718C21.1013 28.978 20.9224 28.1684 20.5583 27.6428C20.1942 27.1172 19.6997 26.8526 19.0747 26.8489C18.52 26.8456 18.0534 27.1397 17.675 27.7313C17.2965 28.3228 17.1047 29.0404 17.0998 29.8842C17.0945 30.7748 17.2817 31.4868 17.6614 32.0203C18.0411 32.546 18.563 32.8108 19.2271 32.8147Z" fill="#FFF7F7"/>
<defs>
<linearGradient id="paint0_linear" x1="13.3889" y1="33" x2="38.3889" y2="85" gradientUnits="userSpaceOnUse">
<stop stop-color="#2F80ED"/>
<stop offset="1" stop-color="#EBECF7" stop-opacity="0"/>
</linearGradient>
</defs>
</svg>
