<svg width="39" height="67" viewBox="0 0 39 67" fill="none" xmlns="http://www.w3.org/2000/svg">
<rect x="0.999939" width="38" height="66" transform="rotate(0.337597 0.999939 0)" fill="#C4C4C4"/>
<rect x="0.999939" width="38" height="66" transform="rotate(0.337597 0.999939 0)" fill="url(#paint0_linear)"/>
<path d="M15.667 41.1277L11.7061 41.1044L11.7804 28.4953L7.88319 29.609L7.90087 26.6091L15.4043 24.0634L15.7676 24.0655L15.667 41.1277ZM32.7 34.2553C32.6864 36.56 32.1564 38.3342 31.11 39.5781C30.0714 40.822 28.6107 41.4384 26.7279 41.4273C24.8295 41.4161 23.3645 40.7786 22.3329 39.5147C21.3013 38.2507 20.7922 36.4743 20.8057 34.1852L20.824 31.0681C20.8376 28.7635 21.3637 26.9892 22.4023 25.7453C23.4487 24.5014 24.9172 23.8851 26.8078 23.8962C28.6984 23.9074 30.1595 24.5449 31.1911 25.8088C32.2228 27.0727 32.7318 28.8531 32.7183 31.1499L32.7 34.2553ZM28.7722 30.611C28.7794 29.3845 28.6246 28.4695 28.3079 27.8661C27.9912 27.2548 27.4852 26.9471 26.7899 26.943C26.1102 26.939 25.6124 27.2174 25.2966 27.778C24.9886 28.3387 24.8196 29.1893 24.7894 30.3297L24.7637 34.689C24.7562 35.9625 24.9109 36.897 25.2277 37.4926C25.5445 38.0804 26.0506 38.3764 26.7459 38.3805C27.4178 38.3844 27.9155 38.1022 28.2392 37.5338C28.5629 36.9576 28.7323 36.0562 28.7473 34.8297L28.7722 30.611Z" fill="#FFF7F7"/>
<defs>
<linearGradient id="paint0_linear" x1="13.9999" y1="33" x2="38.9999" y2="85" gradientUnits="userSpaceOnUse">
<stop stop-color="#EB5757"/>
<stop offset="1" stop-color="#EBECF7" stop-opacity="0"/>
</linearGradient>
</defs>
</svg>
