<svg width="39" height="67" viewBox="0 0 39 67" fill="none" xmlns="http://www.w3.org/2000/svg">
<rect x="1" width="38" height="66" transform="rotate(0.337597 1 0)" fill="#C4C4C4"/>
<rect x="1" width="38" height="66" transform="rotate(0.337597 1 0)" fill="url(#paint0_linear)"/>
<path d="M17.5826 30.8436L19.4459 30.8546C20.9224 30.8633 21.665 30.145 21.6735 28.6997C21.6768 28.1372 21.5037 27.6792 21.1542 27.3255C20.8048 26.9641 20.3097 26.7815 19.6691 26.7777C19.1457 26.7746 18.6878 26.9243 18.2954 27.2267C17.9108 27.5291 17.7171 27.9069 17.7145 28.36L13.7653 28.3367C13.7706 27.4383 14.0253 26.639 14.5295 25.9388C15.0336 25.2387 15.7282 24.6959 16.6133 24.3104C17.5063 23.9173 18.484 23.7238 19.5465 23.7301C21.4449 23.7412 22.9345 24.1836 24.0153 25.0572C25.0961 25.9308 25.632 27.1254 25.6231 28.641C25.6188 29.3753 25.3881 30.0693 24.9311 30.7228C24.482 31.3686 23.8266 31.8921 22.9648 32.2933C23.8691 32.6268 24.5771 33.131 25.0888 33.8059C25.6005 34.473 25.8534 35.2987 25.8476 36.283C25.8386 37.8064 25.2455 39.0217 24.0683 39.9289C22.891 40.836 21.3493 41.284 19.4431 41.2727C18.3259 41.2661 17.2881 41.0491 16.3297 40.6216C15.3791 40.1863 14.6599 39.5922 14.1722 38.8393C13.6845 38.0786 13.4434 37.2178 13.4491 36.2569L17.4217 36.2803C17.4186 36.8037 17.6269 37.258 18.0465 37.6433C18.4661 38.0286 18.9845 38.2231 19.6017 38.2267C20.297 38.2308 20.8528 38.0427 21.2691 37.6623C21.6854 37.2741 21.8954 36.7793 21.8989 36.1777C21.904 35.3184 21.6928 34.7077 21.2652 34.3458C20.8376 33.9839 20.2449 33.8008 19.4871 33.7963L17.5653 33.785L17.5826 30.8436Z" fill="#FFF7F7"/>
<defs>
<linearGradient id="paint0_linear" x1="14" y1="33" x2="39" y2="85" gradientUnits="userSpaceOnUse">
<stop stop-color="#EB5757"/>
<stop offset="1" stop-color="#EBECF7" stop-opacity="0"/>
</linearGradient>
</defs>
</svg>
