<svg width="39" height="67" viewBox="0 0 39 67" fill="none" xmlns="http://www.w3.org/2000/svg">
<rect x="0.388916" width="38" height="66" transform="rotate(0.337597 0.388916 0)" fill="#C4C4C4"/>
<rect x="0.388916" width="38" height="66" transform="rotate(0.337597 0.388916 0)" fill="url(#paint0_linear)"/>
<path d="M25.0961 41.1463L13.1901 41.0762L13.2052 38.4981L18.7235 32.7649C20.0841 31.2338 20.7671 30.0152 20.7724 29.1089C20.7767 28.3746 20.6199 27.815 20.3018 27.4303C19.9838 27.0456 19.5201 26.8515 18.9107 26.8479C18.3092 26.8444 17.8194 27.0993 17.4413 27.6127C17.0633 28.1183 16.8721 28.7539 16.8676 29.5195L12.9067 29.4962C12.9129 28.4493 13.1803 27.486 13.7089 26.6063C14.2376 25.7188 14.9682 25.0278 15.9009 24.5333C16.8335 24.0387 17.874 23.7949 19.0224 23.8016C20.8661 23.8125 22.2816 24.2466 23.2687 25.104C24.2637 25.9615 24.7565 27.187 24.7471 28.7808C24.7431 29.4526 24.6143 30.1081 24.3605 30.7473C24.1068 31.3786 23.7122 32.0443 23.1768 32.7442C22.6493 33.4365 21.7962 34.365 20.6174 35.53L18.3993 38.0599L25.1141 38.0995L25.0961 41.1463Z" fill="#FFF7F7"/>
<defs>
<linearGradient id="paint0_linear" x1="13.3889" y1="33" x2="38.3889" y2="85" gradientUnits="userSpaceOnUse">
<stop stop-color="#F2C94C"/>
<stop offset="1" stop-color="#EBECF7" stop-opacity="0"/>
</linearGradient>
</defs>
</svg>
