<svg width="39" height="67" viewBox="0 0 39 67" fill="none" xmlns="http://www.w3.org/2000/svg">
<rect x="0.388855" width="38" height="66" transform="rotate(0.337597 0.388855 0)" fill="#C4C4C4"/>
<rect x="0.388855" width="38" height="66" transform="rotate(0.337597 0.388855 0)" fill="url(#paint0_linear)"/>
<path d="M14.6242 49.6763C14.2131 49.5265 13.8432 49.5565 13.5145 49.7665C13.1872 49.9722 12.7728 50.4105 12.2712 51.0813C11.7695 51.7522 11.2984 52.2595 10.8577 52.6034C10.0119 53.2603 9.1587 53.4319 8.29809 53.1182C7.54452 52.8435 7.03528 52.311 6.77037 51.5208C6.50703 50.7263 6.55407 49.8388 6.91151 48.8583C7.14876 48.2075 7.48015 47.671 7.90566 47.2489C8.33118 46.8268 8.81965 46.5513 9.37108 46.4225C9.91823 46.2921 10.4616 46.3253 11.001 46.5219L10.411 48.1404C9.92293 47.9625 9.48567 47.9777 9.09926 48.1861C8.71013 48.3886 8.41177 48.7746 8.20417 49.3441C8.01063 49.875 7.97347 50.3295 8.09269 50.7077C8.21348 51.0816 8.47726 51.3427 8.88401 51.4909C9.22655 51.6158 9.57117 51.562 9.91788 51.3294C10.2603 51.0953 10.6734 50.6541 11.1571 50.0058C11.6365 49.356 12.0958 48.8613 12.5349 48.5217C12.9697 48.1806 13.4043 47.9729 13.8389 47.8985C14.2692 47.8225 14.7241 47.8719 15.2037 48.0467C15.983 48.3308 16.4945 48.8568 16.7384 49.6248C16.9796 50.387 16.9137 51.2798 16.5406 52.3031C16.294 52.9796 15.9427 53.5573 15.4868 54.0362C15.0282 54.5093 14.5206 54.8239 13.9641 54.98C13.4091 55.1318 12.8383 55.1007 12.2517 54.8869L12.8441 53.262C13.375 53.4555 13.8501 53.4298 14.2692 53.1849C14.6883 52.9399 15.0173 52.4899 15.2561 51.8348C15.4622 51.2696 15.5032 50.8044 15.3793 50.4391C15.2527 50.0679 15.001 49.8137 14.6242 49.6763ZM15.0837 43.3463L15.8213 44.8158L18.7371 45.8787L18.1447 47.5036L8.79359 44.0947L9.38594 42.4698L13.7725 44.0689L12.9892 42.7647L10.7111 38.8347L11.4276 36.8694L14.3034 41.8541L20.8513 40.0792L20.1489 42.0059L15.0837 43.3463ZM21.7948 37.4909L21.2048 39.1094L11.8537 35.7005L12.4437 34.082L21.7948 37.4909ZM19.6407 32.602L23.1153 33.8687L22.523 35.4935L13.1718 32.0846L14.4759 28.5073C14.8568 27.4626 15.4307 26.7332 16.1977 26.3191C16.9662 25.9008 17.7979 25.8547 18.6928 26.181C19.609 26.515 20.2119 27.0767 20.5013 27.8662C20.7923 28.6514 20.7404 29.5856 20.3455 30.6688L19.6407 32.602ZM18.337 32.1267L19.0487 30.1743C19.2594 29.5963 19.2853 29.1061 19.1264 28.7038C18.9632 28.2999 18.6247 28.0043 18.1109 27.817C17.6057 27.6328 17.147 27.6402 16.7349 27.8392C16.3185 28.0367 16.0077 28.4036 15.8025 28.94L15.0744 30.9374L18.337 32.1267ZM25.5901 27.0801L16.2389 23.6712L17.4072 20.4663C17.7928 19.4088 18.2981 18.6811 18.9234 18.2833C19.5486 17.8855 20.2808 17.8395 21.12 18.1454C21.5482 18.3015 21.8914 18.5576 22.1497 18.9137C22.4079 19.2698 22.5501 19.7048 22.5761 20.2188C22.8973 19.7635 23.2984 19.4683 23.7794 19.3332C24.2576 19.1922 24.7622 19.2185 25.2931 19.4121C26.1708 19.732 26.7422 20.2605 27.0071 20.9973C27.2737 21.7299 27.2157 22.6207 26.8333 23.6697L25.5901 27.0801ZM21.9628 23.917L24.8851 24.9823L25.543 23.1775C25.7287 22.668 25.7476 22.2238 25.5995 21.8448C25.4515 21.4658 25.1527 21.1944 24.7031 21.0305C23.7312 20.6762 23.0534 20.9918 22.6699 21.9774L21.9628 23.917ZM20.7682 23.4815L21.3489 21.8887C21.5331 21.3835 21.5632 20.9482 21.4393 20.5829C21.3127 20.2117 21.0395 19.9497 20.6199 19.7967C20.1575 19.6281 19.7752 19.6391 19.4729 19.8296C19.1721 20.0159 18.9203 20.3873 18.7174 20.944L18.1415 22.5239L20.7682 23.4815ZM26.9041 9.7038C27.8204 10.0378 28.5676 10.4897 29.1457 11.0594C29.7195 11.6275 30.085 12.2749 30.2421 13.0016C30.3965 13.7224 30.334 14.466 30.0546 15.2325C29.7783 15.9903 29.3476 16.5997 28.7624 17.0606C28.1745 17.5157 27.4787 17.7811 26.675 17.8567C25.8729 17.9281 25.0236 17.8028 24.1272 17.4809L23.6005 17.2889C22.6885 16.9564 21.9421 16.5024 21.3613 15.9269C20.782 15.3471 20.4152 14.6967 20.2608 13.9759C20.1037 13.2493 20.164 12.5049 20.4419 11.7427C20.7197 10.9806 21.1496 10.3733 21.7317 9.92099C22.311 9.4628 23.0039 9.19878 23.8103 9.12896C24.6125 9.05757 25.4703 9.18597 26.3839 9.51415L26.9041 9.7038ZM25.8236 11.1507C24.7875 10.773 23.9214 10.6804 23.2255 10.873C22.5311 11.0613 22.0528 11.5151 21.7906 12.2344C21.5346 12.9366 21.6102 13.5875 22.0174 14.187C22.4218 14.7807 23.1256 15.2652 24.1287 15.6406L24.6681 15.8373C25.6957 16.2119 26.5626 16.3023 27.2686 16.1086C27.9762 15.9106 28.4596 15.4562 28.7187 14.7455C28.9809 14.0261 28.9083 13.3739 28.5007 12.7888C28.0947 12.1994 27.365 11.7127 26.3117 11.3287L25.8236 11.1507Z" fill="white"/>
<defs>
<linearGradient id="paint0_linear" x1="13.3889" y1="33" x2="38.3889" y2="85" gradientUnits="userSpaceOnUse">
<stop stop-color="#F2C94C"/>
<stop offset="1" stop-color="#EBECF7" stop-opacity="0"/>
</linearGradient>
</defs>
</svg>
