<svg width="39" height="67" viewBox="0 0 39 67" fill="none" xmlns="http://www.w3.org/2000/svg">
<rect x="0.999939" width="38" height="66" transform="rotate(0.337597 0.999939 0)" fill="#C4C4C4"/>
<rect x="0.999939" width="38" height="66" transform="rotate(0.337597 0.999939 0)" fill="url(#paint0_linear)"/>
<path d="M15.667 41.1277L11.7061 41.1044L11.7804 28.4953L7.88319 29.609L7.90087 26.6091L15.4043 24.0634L15.7676 24.0655L15.667 41.1277ZM32.7175 41.2282L20.8115 41.1581L20.8266 38.58L26.3449 32.8468C27.7055 31.3157 28.3885 30.097 28.3938 29.1908C28.3981 28.4564 28.2413 27.8969 27.9232 27.5122C27.6052 27.1275 27.1415 26.9334 26.5321 26.9298C25.9306 26.9263 25.4408 27.1812 25.0627 27.6946C24.6848 28.2002 24.4935 28.8358 24.489 29.6014L20.5281 29.5781C20.5343 28.5312 20.8017 27.5679 21.3303 26.6882C21.859 25.8007 22.5896 25.1097 23.5223 24.6152C24.4549 24.1206 25.4954 23.8768 26.6438 23.8835C28.4875 23.8944 29.903 24.3285 30.8901 25.1859C31.8851 26.0434 32.3779 27.2689 32.3685 28.8627C32.3645 29.5345 32.2357 30.19 31.9819 30.8292C31.7282 31.4605 31.3336 32.1262 30.7982 32.8261C30.2707 33.5183 29.4176 34.4469 28.2388 35.6119L26.0207 38.1418L32.7355 38.1814L32.7175 41.2282Z" fill="#FFF7F7"/>
<defs>
<linearGradient id="paint0_linear" x1="13.9999" y1="33" x2="38.9999" y2="85" gradientUnits="userSpaceOnUse">
<stop stop-color="#EB5757"/>
<stop offset="1" stop-color="#EBECF7" stop-opacity="0"/>
</linearGradient>
</defs>
</svg>
